<svg id="Layer_1" data-name="Layer 1" xmlns="http://www.w3.org/2000/svg" viewBox="0 0 2000 517.16"><defs><style>.cls-1{font-size:262.77px;fill:#363534;font-family:Montserrat-Bold, Montserrat;font-weight:700;}.cls-2{letter-spacing:-0.01em;}.cls-3{font-size:261.97px;font-family:Montserrat-Light, Montserrat;font-weight:300;letter-spacing:0.16em;}.cls-3,.cls-7{fill:#20778c;}.cls-4{letter-spacing:0.19em;}.cls-5{letter-spacing:0.19em;}.cls-6{letter-spacing:0.18em;}</style></defs><text class="cls-1" transform="translate(585.39 223.35)">ISENBA<tspan class="cls-2" x="1044.75" y="0">R</tspan><tspan x="1235.26" y="0">T</tspan></text><text class="cls-3" transform="translate(585.39 448.79)">A<tspan class="cls-4" x="227.65" y="0">y</tspan><tspan class="cls-5" x="415.74" y="0">m</tspan><tspan class="cls-4" x="744.5" y="0">e</tspan><tspan class="cls-6" x="950.67" y="0">r</tspan><tspan class="cls-4" x="1101.3" y="0">ic</tspan></text><polygon class="cls-7" points="491.7 450.62 244.91 450.62 232.55 400.68 226.3 375.47 245.77 368.91 301.99 349.99 306.67 368.91 389.5 368.91 384.69 349.44 378.44 324.23 365.76 273 289.32 298.75 213.62 324.23 104.11 361.12 89.15 421.65 81.98 450.62 0 450.62 101.62 39.87 225.27 39.87 252.05 148.18 257.52 170.25 181.86 195.73 176.39 173.66 163.44 121.33 148.14 183.19 141.69 209.26 126.01 272.62 195.11 249.36 270.8 223.84 347.25 198.12 334 144.49 328.53 122.43 308.11 39.87 390.08 39.87 404.19 96.95 409.66 119.01 422.91 172.64 441.46 247.51 454.13 298.75 460.38 323.96 471.48 368.91 491.7 450.62"/></svg>