<svg id="Layer_1" data-name="Layer 1" xmlns="http://www.w3.org/2000/svg" viewBox="0 0 199.71 166.83"><defs><style>.cls-1{fill:#fff;}</style></defs><polygon class="cls-1" points="199.71 166.83 99.47 166.83 94.45 146.55 91.91 136.31 99.82 133.65 122.66 125.96 124.56 133.65 158.2 133.65 156.25 125.74 153.71 115.5 148.56 94.69 117.51 105.15 86.77 115.5 42.29 130.48 36.21 155.07 33.3 166.83 0 166.83 41.27 0 91.5 0 102.38 43.99 104.59 52.96 73.86 63.31 71.64 54.34 66.39 33.09 60.17 58.21 57.55 68.8 51.18 94.54 79.25 85.09 109.99 74.72 141.04 64.28 135.66 42.49 133.44 33.53 125.14 0 158.44 0 164.17 23.18 166.39 32.15 171.77 53.93 179.31 84.34 184.45 105.15 186.99 115.39 191.5 133.65 199.71 166.83"/></svg>