<?xml version="1.0" encoding="utf-8"?>
<!-- Generator: Adobe Illustrator 26.3.1, SVG Export Plug-In . SVG Version: 6.00 Build 0)  -->
<svg version="1.1" id="Layer_1" xmlns="http://www.w3.org/2000/svg" xmlns:xlink="http://www.w3.org/1999/xlink" x="0px" y="0px"
	 viewBox="0 0 200 166.83" style="enable-background:new 0 0 200 166.83;" xml:space="preserve">
<style type="text/css">
	.st0{fill:#249CC1;}
</style>
<polygon class="st0" points="199.86,166.83 99.62,166.83 94.6,146.55 92.06,136.31 99.97,133.65 122.8,125.96 124.7,133.65 
	158.35,133.65 156.39,125.74 153.85,115.5 148.7,94.69 117.65,105.15 86.91,115.5 42.43,130.48 36.35,155.07 33.44,166.83 
	0.14,166.83 41.42,0 91.64,0 102.52,43.99 104.74,52.96 74.01,63.31 71.79,54.34 66.53,33.09 60.31,58.21 57.69,68.8 51.32,94.54 
	79.39,85.09 110.13,74.72 141.18,64.28 135.8,42.5 133.58,33.53 125.28,0 158.58,0 164.31,23.18 166.53,32.15 171.91,53.93 
	179.45,84.34 184.6,105.15 187.13,115.39 191.64,133.65 "/>
</svg>
